<?xml version="1.0" encoding="UTF-8" standalone="no"?>
<!DOCTYPE svg PUBLIC "-//W3C//DTD SVG 1.1//EN" "http://www.w3.org/Graphics/SVG/1.1/DTD/svg11.dtd">
<svg width="100%" height="100%" viewBox="0 0 300 300" version="1.1" xmlns="http://www.w3.org/2000/svg" xmlns:xlink="http://www.w3.org/1999/xlink" xml:space="preserve" xmlns:serif="http://www.serif.com/" style="fill-rule:evenodd;clip-rule:evenodd;stroke-linejoin:round;stroke-miterlimit:1.41421;">
    <g transform="matrix(1.41314,0,0,1.41314,-10.2298,-10.2298)">
        <g transform="matrix(1,0,0,1,-25.1469,0)">
            <path d="M147.882,170.279L129.184,170.279C129.15,170.281 129.115,170.282 129.081,170.282C128.094,170.282 127.281,169.469 127.281,168.482C127.281,168.448 127.282,168.413 127.284,168.379L127.284,135.383C127.282,135.349 127.281,135.314 127.281,135.28C127.281,134.293 128.094,133.48 129.081,133.48C129.115,133.48 129.15,133.481 129.184,133.483L147.882,133.483C147.916,133.481 147.95,133.48 147.984,133.48C148.972,133.48 149.784,134.293 149.784,135.28C149.784,135.314 149.783,135.349 149.781,135.383L149.781,168.379C149.781,169.421 148.924,170.279 147.882,170.279ZM131.084,166.479L145.982,166.479L145.982,137.283L131.084,137.283L131.084,166.479Z" style="fill:rgb(51,51,51);fill-rule:nonzero;"/>
        </g>
        <g transform="matrix(1,0,0,1,-25.0969,0)">
            <path d="M138.483,149.781C138.448,149.783 138.414,149.784 138.38,149.784C137.392,149.784 136.58,148.972 136.58,147.984C136.58,147.95 136.581,147.916 136.583,147.882L136.583,142.582C136.583,141.54 137.441,140.682 138.483,140.682C139.525,140.682 140.382,141.54 140.382,142.582L140.382,147.882C140.384,147.916 140.385,147.95 140.385,147.984C140.385,148.972 139.573,149.784 138.586,149.784C138.551,149.784 138.517,149.783 138.483,149.781Z" style="fill:rgb(51,51,51);fill-rule:nonzero;"/>
        </g>
        <g transform="matrix(1,0,0,1,0.0496559,0)">
            <path d="M138.683,99.188L88.089,99.188C83.996,99.134 80.643,95.782 80.59,91.689L80.59,62.292C80.643,58.199 83.996,54.847 88.089,54.793L138.583,54.793C142.676,54.847 146.028,58.199 146.082,62.292L146.082,91.789C146.082,95.848 142.742,99.188 138.683,99.188L138.683,99.188ZM88.089,58.493C86.005,58.493 84.289,60.208 84.289,62.292L84.289,91.689C84.289,93.773 86.005,95.488 88.089,95.488L138.583,95.488C140.667,95.488 142.382,93.773 142.382,91.689L142.382,62.292C142.382,60.208 140.667,58.493 138.583,58.493L88.089,58.493Z" style="fill:rgb(51,51,51);fill-rule:nonzero;"/>
        </g>
        <path d="M157.48,51.294C157.515,51.296 157.549,51.297 157.583,51.297C158.571,51.297 159.383,50.484 159.383,49.497C159.383,49.462 159.382,49.428 159.38,49.394L159.38,30.196C159.382,30.162 159.383,30.128 159.383,30.093C159.383,29.106 158.571,28.294 157.583,28.294C157.549,28.294 157.515,28.294 157.48,28.296L69.291,28.296C69.257,28.294 69.223,28.294 69.188,28.294C68.201,28.294 67.389,29.106 67.389,30.093C67.389,30.128 67.39,30.162 67.392,30.196L67.392,49.494C67.39,49.528 67.389,49.562 67.389,49.597C67.389,50.584 68.201,51.397 69.188,51.397C69.223,51.397 69.257,51.396 69.291,51.394L72.091,51.394L72.091,108.686L67.392,123.385L67.392,196.575C67.39,196.61 67.389,196.644 67.389,196.678C67.389,197.666 68.201,198.478 69.188,198.478C69.223,198.478 69.257,198.477 69.291,198.475L157.48,198.475C157.515,198.477 157.549,198.478 157.583,198.478C158.571,198.478 159.383,197.666 159.383,196.678C159.383,196.644 159.382,196.61 159.38,196.575L159.38,123.385L154.681,108.686L154.681,51.294L157.48,51.294ZM155.581,194.576L71.091,194.576L71.091,126.984L155.581,126.984L155.581,194.576ZM155.181,123.085L71.491,123.085L75.091,111.386L108.686,111.386C109.41,112.283 110.385,112.945 111.486,113.286L111.486,117.085L110.886,117.085C109.844,117.085 108.986,117.943 108.986,118.985C108.986,120.027 109.844,120.885 110.886,120.885L115.786,120.885C116.828,120.885 117.685,120.027 117.685,118.985C117.685,117.943 116.828,117.085 115.786,117.085L115.186,117.085L115.186,113.286C116.251,112.874 117.209,112.224 117.985,111.386L151.381,111.386L155.181,123.085ZM150.681,107.787L119.385,107.787C119.385,104.468 116.654,101.737 113.336,101.737C110.017,101.737 107.287,104.468 107.287,107.787L75.891,107.787L75.891,51.294L150.881,51.294L150.681,107.887L150.681,107.787ZM115.586,107.787C115.587,107.821 115.588,107.855 115.588,107.889C115.588,109.096 114.595,110.089 113.388,110.089C113.354,110.089 113.32,110.088 113.286,110.086C112.024,110.086 110.986,109.048 110.986,107.787C111.211,106.728 112.154,105.964 113.236,105.964C114.318,105.964 115.261,106.728 115.486,107.787L115.586,107.787ZM71.091,47.594L71.091,32.096L155.581,32.096L155.581,47.594L71.091,47.594Z" style="fill:rgb(51,51,51);fill-rule:nonzero;"/>
        <g transform="matrix(1,0,0,1,-25.0969,0)">
            <circle cx="138.483" cy="158.78" r="3.4" style="fill:rgb(51,51,51);"/>
        </g>
    </g>
</svg>
