<?xml version="1.0" encoding="UTF-8" standalone="no"?>
<!DOCTYPE svg PUBLIC "-//W3C//DTD SVG 1.1//EN" "http://www.w3.org/Graphics/SVG/1.1/DTD/svg11.dtd">
<svg width="100%" height="100%" viewBox="0 0 115 115" version="1.1" xmlns="http://www.w3.org/2000/svg" xmlns:xlink="http://www.w3.org/1999/xlink" xml:space="preserve" xmlns:serif="http://www.serif.com/" style="fill-rule:evenodd;clip-rule:evenodd;stroke-linejoin:round;stroke-miterlimit:1.41421;">
    <path d="M4.215,109.997C5.35,112.722 8.013,114.497 10.963,114.497L103.534,114.497C107.571,114.497 110.843,111.226 110.843,107.187L110.843,85.264C110.843,81.227 107.572,77.955 103.534,77.955C99.496,77.955 96.224,81.226 96.224,85.264L96.224,99.879L28.525,99.879L62,66.182C64.68,63.483 64.844,59.178 62.373,56.286L26.81,14.617L96.226,14.617L96.226,19.489C96.226,23.526 99.497,26.797 103.536,26.797C107.575,26.797 110.845,23.526 110.845,19.489L110.845,7.309C110.845,3.272 107.574,0 103.536,0L10.963,0C8.112,0 5.521,1.659 4.327,4.249C3.133,6.839 3.555,9.886 5.404,12.054L46.888,60.658L5.779,102.038C3.698,104.132 3.082,107.271 4.215,109.997Z" style="fill:white;fill-rule:nonzero;"/>
</svg>
