<?xml version="1.0" encoding="UTF-8" standalone="no"?>
<!DOCTYPE svg PUBLIC "-//W3C//DTD SVG 1.1//EN" "http://www.w3.org/Graphics/SVG/1.1/DTD/svg11.dtd">
<svg width="100%" height="100%" viewBox="0 0 24 24" version="1.1" xmlns="http://www.w3.org/2000/svg" xmlns:xlink="http://www.w3.org/1999/xlink" xml:space="preserve" xmlns:serif="http://www.serif.com/" style="fill-rule:evenodd;clip-rule:evenodd;stroke-linejoin:round;stroke-miterlimit:1.41421;">
    <path d="M21.652,3.211C21.359,2.916 20.882,2.916 20.591,3.211L9.41,14.34C9.117,14.637 8.639,14.637 8.348,14.34L3.449,9.351C3.304,9.203 3.114,9.13 2.923,9.129C2.73,9.128 2.534,9.201 2.387,9.351L0.222,11.297C0.078,11.445 0,11.63 0,11.823C0,12.017 0.078,12.22 0.223,12.367L5.163,17.551C5.455,17.847 5.934,18.327 6.225,18.621L8.349,20.762C8.641,21.055 9.118,21.055 9.411,20.762L23.777,6.422C24.07,6.128 24.07,5.645 23.777,5.351L21.652,3.211Z" style="fill:white;"/>
</svg>
