<?xml version="1.0" encoding="UTF-8" standalone="no"?>
<!DOCTYPE svg PUBLIC "-//W3C//DTD SVG 1.1//EN" "http://www.w3.org/Graphics/SVG/1.1/DTD/svg11.dtd">
<svg width="100%" height="100%" viewBox="0 0 981 830" version="1.1" xmlns="http://www.w3.org/2000/svg" xmlns:xlink="http://www.w3.org/1999/xlink" xml:space="preserve" xmlns:serif="http://www.serif.com/" style="fill-rule:evenodd;clip-rule:evenodd;stroke-linejoin:round;stroke-miterlimit:1.41421;">
    <g transform="matrix(0.1,0,0,-0.1,0,830)">
        <path d="M625,8280C245,8274 234,8274 188,8251C130,8223 76,8164 42,8090C16,8035 16,8034 7,7655C2,7446 1,5692 3,3757L8,240L37,192C53,166 71,133 77,118C101,64 157,47 380,28C553,14 8811,5 9275,18C9518,26 9593,31 9623,43C9674,65 9757,152 9770,198C9796,286 9801,1088 9797,4465C9794,6878 9789,7943 9781,8008C9766,8143 9729,8192 9592,8260L9531,8290L5273,8288C2931,8287 840,8284 625,8280ZM6134,7571C6253,7514 6345,7380 6345,7265C6344,7147 6256,7011 6139,6949C6101,6929 6080,6925 5995,6925C5909,6925 5888,6928 5845,6949C5779,6982 5714,7049 5682,7118C5646,7195 5644,7320 5677,7393C5721,7487 5800,7556 5905,7590C5984,7616 6050,7611 6134,7571ZM7355,7571C7439,7532 7494,7480 7531,7404C7559,7349 7563,7330 7563,7260C7563,7190 7559,7171 7531,7116C7428,6906 7162,6851 6993,7004C6971,7023 6938,7068 6920,7102C6875,7187 6867,7295 6900,7382C6923,7444 6990,7526 7046,7561C7139,7618 7248,7622 7355,7571ZM8592,7573C8653,7545 8721,7474 8757,7402C8780,7354 8785,7332 8785,7265C8785,7198 8780,7175 8757,7125C8725,7057 8654,6979 8595,6947C8562,6929 8539,6925 8455,6925C8366,6925 8349,6928 8298,6953C8231,6986 8172,7052 8134,7135C8111,7186 8108,7201 8112,7274C8116,7337 8123,7367 8144,7408C8181,7481 8241,7544 8303,7575C8351,7599 8363,7601 8450,7598C8519,7595 8558,7588 8592,7573ZM9136,3488C9132,1946 9127,683 9124,681C9121,678 7221,674 4900,672L680,667L680,6290L9143,6290L9136,3488Z" style="fill:white;fill-rule:nonzero;"/>
        <path d="M1885,5330C1806,5291 1805,5287 1805,4930C1805,4691 1808,4606 1818,4577C1834,4533 1910,4468 2439,4044C2618,3902 2775,3776 2788,3764L2813,3744L2704,3654C2644,3604 2453,3450 2280,3310C2107,3171 1928,3025 1882,2986L1799,2915L1802,2580C1805,2211 1805,2211 1870,2156C1931,2105 1933,2106 2138,2243C2606,2555 3729,3357 3782,3416C3808,3446 3820,3542 3820,3729C3820,3928 3808,4034 3782,4069C3727,4144 1985,5350 1932,5350C1928,5350 1907,5341 1885,5330Z" style="fill:white;fill-rule:nonzero;"/>
        <path d="M3751,2293C3675,2227 3670,2209 3670,2025C3670,1849 3678,1819 3738,1758L3774,1720L6196,1720L6237,1763C6260,1786 6283,1816 6288,1830C6298,1856 6304,1988 6301,2130L6300,2214L6236,2277L6171,2340L4988,2340L3805,2340L3751,2293Z" style="fill:white;fill-rule:nonzero;"/>
    </g>
</svg>
